<mxfile host="app.diagrams.net" modified="2024-02-06T01:02:54.093Z" agent="Mozilla/5.0 (Windows NT 10.0; Win64; x64) AppleWebKit/537.36 (KHTML, like Gecko) Chrome/121.0.0.0 Safari/537.36" etag="3jYtGOYjGzxqpYnuTmUN" version="23.1.1" type="device">
  <diagram name="PÃ¡gina-1" id="tdzSoufDyK4EUonDIDz6">
    <mxGraphModel dx="1147" dy="590" grid="1" gridSize="10" guides="1" tooltips="1" connect="1" arrows="1" fold="1" page="1" pageScale="1" pageWidth="827" pageHeight="1169" math="0" shadow="0">
      <root>
        <mxCell id="0" />
        <mxCell id="1" parent="0" />
        <mxCell id="KLQGm_FjVOcyDm_iqqxk-1" value="Administrador" style="shape=umlActor;verticalLabelPosition=bottom;verticalAlign=top;html=1;outlineConnect=0;" vertex="1" parent="1">
          <mxGeometry x="200" y="320" width="30" height="60" as="geometry" />
        </mxCell>
        <mxCell id="KLQGm_FjVOcyDm_iqqxk-5" value="Crear y eliminar grupo" style="ellipse;whiteSpace=wrap;html=1;" vertex="1" parent="1">
          <mxGeometry x="370" y="330" width="100" height="40" as="geometry" />
        </mxCell>
        <mxCell id="KLQGm_FjVOcyDm_iqqxk-6" value="Crear y eliminar usuario" style="ellipse;whiteSpace=wrap;html=1;" vertex="1" parent="1">
          <mxGeometry x="380" y="260" width="80" height="40" as="geometry" />
        </mxCell>
        <mxCell id="KLQGm_FjVOcyDm_iqqxk-12" value="Introducir alumnos" style="ellipse;whiteSpace=wrap;html=1;" vertex="1" parent="1">
          <mxGeometry x="320" y="440" width="100" height="40" as="geometry" />
        </mxCell>
        <mxCell id="KLQGm_FjVOcyDm_iqqxk-13" value="Introducir horarios" style="ellipse;whiteSpace=wrap;html=1;" vertex="1" parent="1">
          <mxGeometry x="320" y="110" width="80" height="40" as="geometry" />
        </mxCell>
        <mxCell id="KLQGm_FjVOcyDm_iqqxk-15" value="" style="ellipse;whiteSpace=wrap;html=1;" vertex="1" parent="1">
          <mxGeometry x="360" y="170" width="80" height="40" as="geometry" />
        </mxCell>
      </root>
    </mxGraphModel>
  </diagram>
</mxfile>
